<svg xmlns="http://www.w3.org/2000/svg" viewBox="0 0 256 256">
  <defs>
    <linearGradient id="bg" x1="0" y1="0" x2="1" y2="1">
      <stop offset="0%" stop-color="#0f3d63" />
      <stop offset="100%" stop-color="#17a2b8" />
    </linearGradient>
  </defs>
  <rect width="256" height="256" rx="56" fill="url(#bg)" />
  <path d="M56 168h144v16H56zm18-78h108c16 0 30 13 30 30v36H44v-36c0-17 13-30 30-30zm24 18v18h60v-18zm9 64a14 14 0 1 0 0 28 14 14 0 0 0 0-28zm42 0a14 14 0 1 0 0 28 14 14 0 0 0 0-28z" fill="#ffffff" />
  <path d="M86 70h84l-14-18H100z" fill="#f9d66c" />
</svg>